<svg xmlns="http://www.w3.org/2000/svg" width="26" height="26" viewBox="0 0 26 26">
  <path fill="#CBCBCB" d="M13,0 C5.81854839,0 0,5.81854839 0,13 C0,20.1814516 5.81854839,26 13,26 C20.1814516,26 26,20.1814516 26,13 C26,5.81854839 20.1814516,0 13,0 Z M13,23.483871 C7.20766129,23.483871 2.51612903,18.7923387 2.51612903,13 C2.51612903,7.20766129 7.20766129,2.51612903 13,2.51612903 C18.7923387,2.51612903 23.483871,7.20766129 23.483871,13 C23.483871,18.7923387 18.7923387,23.483871 13,23.483871 Z M18.3362903,9.73951613 L15.0758065,13 L18.3362903,16.2604839 C18.5826613,16.5068548 18.5826613,16.9052419 18.3362903,17.1516129 L17.1516129,18.3362903 C16.9052419,18.5826613 16.5068548,18.5826613 16.2604839,18.3362903 L13,15.0758065 L9.73951613,18.3362903 C9.49314516,18.5826613 9.09475806,18.5826613 8.8483871,18.3362903 L7.66370968,17.1516129 C7.41733871,16.9052419 7.41733871,16.5068548 7.66370968,16.2604839 L10.9241935,13 L7.66370968,9.73951613 C7.41733871,9.49314516 7.41733871,9.09475806 7.66370968,8.8483871 L8.8483871,7.66370968 C9.09475806,7.41733871 9.49314516,7.41733871 9.73951613,7.66370968 L13,10.9241935 L16.2604839,7.66370968 C16.5068548,7.41733871 16.9052419,7.41733871 17.1516129,7.66370968 L18.3362903,8.8483871 C18.5826613,9.09475806 18.5826613,9.49314516 18.3362903,9.73951613 Z"/>
</svg>
