<svg xmlns="http://www.w3.org/2000/svg" width="26" height="26" viewBox="0 0 26 26">
  <path fill="#CBCBCB" d="M9,17.875 C11.71125,17.875 13.9090909,15.6924219 13.9090909,13 L13.9090909,4.875 C13.9090909,2.18257812 11.71125,0 9,0 C6.28875,0 4.09090909,2.18257812 4.09090909,4.875 L4.09090909,13 C4.09090909,15.6924219 6.28875,17.875 9,17.875 Z M17.1818182,9.75 L16.3636364,9.75 C15.9115909,9.75 15.5454545,10.1135937 15.5454545,10.5625 L15.5454545,13 C15.5454545,16.7984375 12.2476705,19.8463281 8.34596591,19.4685156 C4.94539773,19.1389453 2.45454545,16.1032422 2.45454545,12.7105469 L2.45454545,10.5625 C2.45454545,10.1135937 2.08840909,9.75 1.63636364,9.75 L0.818181818,9.75 C0.366136364,9.75 0,10.1135937 0,10.5625 L0,12.601875 C0,17.1539063 3.27119318,21.2118359 7.77272727,21.8283203 L7.77272727,23.5625 L4.90909091,23.5625 C4.45704545,23.5625 4.09090909,23.9260937 4.09090909,24.375 L4.09090909,25.1875 C4.09090909,25.6364063 4.45704545,26 4.90909091,26 L13.0909091,26 C13.5429545,26 13.9090909,25.6364063 13.9090909,25.1875 L13.9090909,24.375 C13.9090909,23.9260937 13.5429545,23.5625 13.0909091,23.5625 L10.2272727,23.5625 L10.2272727,21.8476172 C14.6101705,21.2504297 18,17.5144531 18,13 L18,10.5625 C18,10.1135937 17.6338636,9.75 17.1818182,9.75 Z" transform="translate(4)"/>
</svg>
