<svg xmlns="http://www.w3.org/2000/svg" width="26" height="26" viewBox="0 0 26 26">
  <path fill="#CBCBCB" d="M19.0649194,12.0564516 L9.8391129,6.44758065 C9.0108871,5.98629032 7.96774194,6.57862903 7.96774194,7.5483871 L7.96774194,18.4516129 C7.96774194,19.416129 9.00564516,20.0137097 9.8391129,19.5524194 L19.0649194,14.2580645 C19.9245968,13.7810484 19.9245968,12.5387097 19.0649194,12.0564516 Z M26,13 C26,5.81854839 20.1814516,0 13,0 C5.81854839,0 0,5.81854839 0,13 C0,20.1814516 5.81854839,26 13,26 C20.1814516,26 26,20.1814516 26,13 Z M2.51612903,13 C2.51612903,7.20766129 7.20766129,2.51612903 13,2.51612903 C18.7923387,2.51612903 23.483871,7.20766129 23.483871,13 C23.483871,18.7923387 18.7923387,23.483871 13,23.483871 C7.20766129,23.483871 2.51612903,18.7923387 2.51612903,13 Z"/>
</svg>
